name ./resultDataOpenSim/trcMotMarkerGrf/sub06/grf-04-02.mot
datacolumns 19
datarows 25
range 0.54000000 0.63600000
endheader

                time	     ground_force_vx	     ground_force_vy	     ground_force_vz	     ground_force_px	     ground_force_py	     ground_force_pz	   l_ground_force_vx	   l_ground_force_vy	   l_ground_force_vz	   l_ground_force_px	   l_ground_force_py	   l_ground_force_pz	     ground_torque_x	     ground_torque_y	     ground_torque_z	   l_ground_torque_x	   l_ground_torque_y	   l_ground_torque_z	
          0.54000000	        101.58941582	        592.83463779	        -44.41357159	         -0.81828100	          0.00000000	          0.11540316	          0.00000000	          0.00000000	          0.00000000	          0.00000000	          0.00000000	          0.00000000	          0.00000000	          0.45941948	          0.00000000	          0.00000000	          0.00000000	          0.00000000	
          0.54400000	        107.42351770	        606.80854587	        -44.25090920	         -0.81794364	          0.00000000	          0.11532052	          0.00000000	          0.00000000	          0.00000000	          0.00000000	          0.00000000	          0.00000000	          0.00000000	          0.65317067	          0.00000000	          0.00000000	          0.00000000	          0.00000000	
          0.54800000	        113.42834738	        620.13997785	        -43.54254853	         -0.81762208	          0.00000000	          0.11521302	          0.00000000	          0.00000000	          0.00000000	          0.00000000	          0.00000000	          0.00000000	          0.00000000	          0.88648785	          0.00000000	          0.00000000	          0.00000000	          0.00000000	
          0.55200000	        119.68811220	        632.80540619	        -42.47185011	         -0.81732279	          0.00000000	          0.11509225	          0.00000000	          0.00000000	          0.00000000	          0.00000000	          0.00000000	          0.00000000	          0.00000000	          1.14165971	          0.00000000	          0.00000000	          0.00000000	          0.00000000	
          0.55600000	        126.28050912	        644.79965845	        -41.27468269	         -0.81705249	          0.00000000	          0.11497032	          0.00000000	          0.00000000	          0.00000000	          0.00000000	          0.00000000	          0.00000000	          0.00000000	          1.39728204	          0.00000000	          0.00000000	          0.00000000	          0.00000000	
          0.56000000	        133.24968923	        656.11048007	        -40.19341427	         -0.81681645	          0.00000000	          0.11485746	          0.00000000	          0.00000000	          0.00000000	          0.00000000	          0.00000000	          0.00000000	          0.00000000	          1.63182391	          0.00000000	          0.00000000	          0.00000000	          0.00000000	
          0.56400000	        140.59031321	        666.69077946	        -39.42852548	         -0.81661503	          0.00000000	          0.11476084	          0.00000000	          0.00000000	          0.00000000	          0.00000000	          0.00000000	          0.00000000	          0.00000000	          1.82711320	          0.00000000	          0.00000000	          0.00000000	          0.00000000	
          0.56800000	        148.24841073	        676.44977459	        -39.10017756	         -0.81644044	          0.00000000	          0.11468695	          0.00000000	          0.00000000	          0.00000000	          0.00000000	          0.00000000	          0.00000000	          0.00000000	          1.97103313	          0.00000000	          0.00000000	          0.00000000	          0.00000000	
          0.57200000	        156.13567094	        685.27379219	        -39.22919591	         -0.81627506	          0.00000000	          0.11463934	          0.00000000	          0.00000000	          0.00000000	          0.00000000	          0.00000000	          0.00000000	          0.00000000	          2.05895716	          0.00000000	          0.00000000	          0.00000000	          0.00000000	
          0.57600000	        164.14579304	        693.05728666	        -39.74055477	         -0.81609430	          0.00000000	          0.11462005	          0.00000000	          0.00000000	          0.00000000	          0.00000000	          0.00000000	          0.00000000	          0.00000000	          2.09377560	          0.00000000	          0.00000000	          0.00000000	          0.00000000	
          0.58000000	        172.16350630	        699.71631424	        -40.48590534	         -0.81588029	          0.00000000	          0.11463271	          0.00000000	          0.00000000	          0.00000000	          0.00000000	          0.00000000	          0.00000000	          0.00000000	          2.08467861	          0.00000000	          0.00000000	          0.00000000	          0.00000000	
          0.58400000	        180.06882163	        705.18452868	        -41.27668253	         -0.81562799	          0.00000000	          0.11467887	          0.00000000	          0.00000000	          0.00000000	          0.00000000	          0.00000000	          0.00000000	          0.00000000	          2.04506199	          0.00000000	          0.00000000	          0.00000000	          0.00000000	
          0.58800000	        187.74504926	        709.41000697	        -41.91982265	         -0.81533637	          0.00000000	          0.11475415	          0.00000000	          0.00000000	          0.00000000	          0.00000000	          0.00000000	          0.00000000	          0.00000000	          1.98998123	          0.00000000	          0.00000000	          0.00000000	          0.00000000	
          0.59200000	        195.09158122	        712.35672175	        -42.25361433	         -0.81501419	          0.00000000	          0.11484761	          0.00000000	          0.00000000	          0.00000000	          0.00000000	          0.00000000	          0.00000000	          0.00000000	          1.93354300	          0.00000000	          0.00000000	          0.00000000	          0.00000000	
          0.59600000	        202.03617210	        714.00587260	        -42.17810137	         -0.81467991	          0.00000000	          0.11494339	          0.00000000	          0.00000000	          0.00000000	          0.00000000	          0.00000000	          0.00000000	          0.00000000	          1.88656551	          0.00000000	          0.00000000	          0.00000000	          0.00000000	
          0.60000000	        208.54210713	        714.35465228	        -41.66948698	         -0.81435222	          0.00000000	          0.11502365	          0.00000000	          0.00000000	          0.00000000	          0.00000000	          0.00000000	          0.00000000	          0.00000000	          1.85481245	          0.00000000	          0.00000000	          0.00000000	          0.00000000	
          0.60400000	        214.60737829	        713.41230504	        -40.77585278	         -0.81404080	          0.00000000	          0.11507957	          0.00000000	          0.00000000	          0.00000000	          0.00000000	          0.00000000	          0.00000000	          0.00000000	          1.83811015	          0.00000000	          0.00000000	          0.00000000	          0.00000000	
          0.60800000	        220.25508113	        711.19456525	        -39.59955054	         -0.81374645	          0.00000000	          0.11511042	          0.00000000	          0.00000000	          0.00000000	          0.00000000	          0.00000000	          0.00000000	          0.00000000	          1.83060301	          0.00000000	          0.00000000	          0.00000000	          0.00000000	
          0.61200000	        225.52012999	        707.71495582	        -38.27082522	         -0.81346815	          0.00000000	          0.11511223	          0.00000000	          0.00000000	          0.00000000	          0.00000000	          0.00000000	          0.00000000	          0.00000000	          1.82218684	          0.00000000	          0.00000000	          0.00000000	          0.00000000	
          0.61600000	        230.44071650	        702.98223153	        -36.91521866	         -0.81320337	          0.00000000	          0.11508408	          0.00000000	          0.00000000	          0.00000000	          0.00000000	          0.00000000	          0.00000000	          0.00000000	          1.80083264	          0.00000000	          0.00000000	          0.00000000	          0.00000000	
          0.62000000	        235.05348287	        697.00380547	        -35.62130873	         -0.81296003	          0.00000000	          0.11502703	          0.00000000	          0.00000000	          0.00000000	          0.00000000	          0.00000000	          0.00000000	          0.00000000	          1.75524210	          0.00000000	          0.00000000	          0.00000000	          0.00000000	
          0.62400000	        239.38341060	        689.77385760	        -34.41968020	         -0.81275561	          0.00000000	          0.11494195	          0.00000000	          0.00000000	          0.00000000	          0.00000000	          0.00000000	          0.00000000	          0.00000000	          1.67716414	          0.00000000	          0.00000000	          0.00000000	          0.00000000	
          0.62800000	        243.42919891	        681.25146075	        -33.27751241	         -0.81260074	          0.00000000	          0.11482736	          0.00000000	          0.00000000	          0.00000000	          0.00000000	          0.00000000	          0.00000000	          0.00000000	          1.56279909	          0.00000000	          0.00000000	          0.00000000	          0.00000000	
          0.63200000	        247.15671096	        671.34948284	        -32.10454293	         -0.81250459	          0.00000000	          0.11467869	          0.00000000	          0.00000000	          0.00000000	          0.00000000	          0.00000000	          0.00000000	          0.00000000	          1.41301746	          0.00000000	          0.00000000	          0.00000000	          0.00000000	
          0.63600000	        250.50601388	        659.93265936	        -30.76744885	         -0.81248057	          0.00000000	          0.11448868	          0.00000000	          0.00000000	          0.00000000	          0.00000000	          0.00000000	          0.00000000	          0.00000000	          1.23249955	          0.00000000	          0.00000000	          0.00000000	          0.00000000	
